<?xml version="1.0" encoding="UTF-8" standalone="no"?>
<svg
   xmlns:dc="http://purl.org/dc/elements/1.1/"
   xmlns:cc="http://creativecommons.org/ns#"
   xmlns:rdf="http://www.w3.org/1999/02/22-rdf-syntax-ns#"
   xmlns:svg="http://www.w3.org/2000/svg"
   xmlns="http://www.w3.org/2000/svg"
   xmlns:sodipodi="http://sodipodi.sourceforge.net/DTD/sodipodi-0.dtd"
   xmlns:inkscape="http://www.inkscape.org/namespaces/inkscape"
   version="1.1"
   id="svg2"
   xml:space="preserve"
   width="939.35333"
   height="408"
   viewBox="0 0 939.35333 408"
   sodipodi:docname="logo logitech.ai"><metadata
     id="metadata8"><rdf:RDF><cc:Work
         rdf:about=""><dc:format>image/svg+xml</dc:format><dc:type
           rdf:resource="http://purl.org/dc/dcmitype/StillImage" /></cc:Work></rdf:RDF></metadata><defs
     id="defs6"><clipPath
       clipPathUnits="userSpaceOnUse"
       id="clipPath18"><path
         d="M 0,306 H 704.515 V 0 H 0 Z"
         id="path16" /></clipPath></defs><sodipodi:namedview
     pagecolor="#ffffff"
     bordercolor="#666666"
     borderopacity="1"
     objecttolerance="10"
     gridtolerance="10"
     guidetolerance="10"
     inkscape:pageopacity="0"
     inkscape:pageshadow="2"
     inkscape:window-width="640"
     inkscape:window-height="480"
     id="namedview4" /><g
     id="g10"
     inkscape:groupmode="layer"
     inkscape:label="logo logitech"
     transform="matrix(1.3333333,0,0,-1.3333333,0,408)"><g
       id="g12"><g
         id="g14"
         clip-path="url(#clipPath18)"><g
           id="g20"
           transform="translate(293.1304,184.2524)"><path
             d="m 0,0 v 16.559 h -29.384 c -4.734,1.623 -9.794,2.596 -15.018,2.596 -25.304,0 -45.216,-19.155 -45.216,-44.156 0,-25.002 19.912,-44.161 45.216,-44.161 25.3,0 45.218,19.159 45.218,44.161 0,8.44 -2.285,16.721 -6.855,22.889 z m -44.402,-49.03 c -13.386,0 -23.995,10.551 -23.995,24.19 0,13.474 10.609,23.865 23.995,23.865 13.55,0 24.16,-10.391 24.16,-24.026 0,-13.64 -10.61,-24.029 -24.16,-24.029"
             style="fill:#1d1d1b;fill-opacity:1;fill-rule:nonzero;stroke:none"
             id="path22" /></g><g
           id="g24"
           transform="translate(151.1128,203.4087)"><path
             d="m 0,0 c -25.302,0 -45.217,-19.156 -45.217,-44.158 0,-25.002 19.915,-44.16 45.217,-44.16 25.302,0 45.216,19.158 45.216,44.16 C 45.216,-19.156 25.302,0 0,0 m 0,-68.187 c -13.386,0 -23.998,10.552 -23.998,24.192 0,13.473 10.612,23.865 23.998,23.865 13.548,0 24.16,-10.392 24.16,-24.028 0,-13.639 -10.612,-24.029 -24.16,-24.029"
             style="fill:#1d1d1b;fill-opacity:1;fill-rule:nonzero;stroke:none"
             id="path26" /></g><path
           d="M 76.838,117.527 H 97.733 V 236.04 H 76.838 Z"
           style="fill:#1d1d1b;fill-opacity:1;fill-rule:nonzero;stroke:none"
           id="path28" /><path
           d="m 302.271,117.527 h 20.896 v 83.284 h -20.896 z"
           style="fill:#1d1d1b;fill-opacity:1;fill-rule:nonzero;stroke:none"
           id="path30" /><g
           id="g32"
           transform="translate(248.7285,87.9795)"><path
             d="m 0,0 c -13.385,0 -23.996,10.389 -23.996,23.864 h -21.219 c 0,-25.001 19.912,-44.157 45.215,-44.157 25.302,0 45.219,19.156 45.219,44.157 H 23.996 C 23.996,10.389 13.386,0 0,0"
             style="fill:#1d1d1b;fill-opacity:1;fill-rule:nonzero;stroke:none"
             id="path34" /></g><g
           id="g36"
           transform="translate(422.7412,203.4087)"><path
             d="m 0,0 c -25.14,0 -44.238,-19.156 -44.238,-44.646 0,-25.164 17.467,-43.672 44.564,-43.672 15.018,0 28.403,5.522 38.197,15.911 L 24.486,-58.609 C 17.628,-65.101 10.284,-69.81 0.814,-69.81 c -11.426,0 -20.077,6.493 -23.014,17.371 h 65.131 v 5.032 C 42.931,-18.995 25.302,0 0,0 m -22.69,-35.554 c 2.773,11.04 11.262,17.207 22.2,17.207 10.937,0 19.098,-6.006 21.709,-17.207 z"
             style="fill:#1d1d1b;fill-opacity:1;fill-rule:nonzero;stroke:none"
             id="path38" /></g><g
           id="g40"
           transform="translate(647.5234,210.5518)"><path
             d="m 0,0 c 0,1.625 -1.144,2.272 -2.775,2.272 h -2.613 v -7.469 h 0.981 v 2.925 h 1.632 l 1.796,-2.925 h 1.14 L -1.796,-2.11 C -0.654,-1.948 0,-1.298 0,0 M -4.407,-1.298 V 1.3 h 1.632 c 1.305,0 1.796,-0.488 1.796,-1.3 0,-0.811 -0.491,-1.298 -1.796,-1.298 z"
             style="fill:#1d1d1b;fill-opacity:1;fill-rule:nonzero;stroke:none"
             id="path42" /></g><g
           id="g44"
           transform="translate(607.6895,203.4087)"><path
             d="M 0,0 C -10.283,0 -19.099,-3.896 -25.303,-10.552 V 32.632 H -46.196 V -85.881 h 20.893 v 45.294 c 0,12.014 7.674,20.295 20.407,20.295 11.917,0 18.445,-7.307 18.445,-20.295 v -45.294 h 20.894 v 49.027 C 34.443,-13.8 19.916,0 0,0"
             style="fill:#1d1d1b;fill-opacity:1;fill-rule:nonzero;stroke:none"
             id="path46" /></g><g
           id="g48"
           transform="translate(644.748,216.2339)"><path
             d="m 0,0 c -4.08,0 -7.346,-3.247 -7.346,-7.142 0,-4.059 3.266,-7.307 7.346,-7.307 3.917,0 7.182,3.248 7.182,7.307 C 7.182,-3.247 3.917,0 0,0 m 0,-13.476 c -3.59,0 -6.365,2.76 -6.365,6.334 0,3.41 2.775,6.169 6.365,6.169 3.427,0 6.203,-2.759 6.203,-6.169 0,-3.574 -2.776,-6.334 -6.203,-6.334"
             style="fill:#1d1d1b;fill-opacity:1;fill-rule:nonzero;stroke:none"
             id="path50" /></g><g
           id="g52"
           transform="translate(517.583,183.2788)"><path
             d="M 0,0 C 8.814,0 15.997,-4.546 21.546,-10.878 L 36.074,3.408 C 27.912,13.635 15.017,20.13 0.327,20.13 c -25.303,0 -45.218,-19.156 -45.218,-44.158 0,-25.002 19.915,-44.16 45.218,-44.16 14.69,0 27.585,6.495 35.747,16.722 L 21.546,-37.18 c -5.385,-6.168 -12.732,-10.877 -21.711,-10.877 -13.386,0 -23.668,10.39 -23.668,24.029 C -23.833,-10.392 -13.551,0 0,0"
             style="fill:#1d1d1b;fill-opacity:1;fill-rule:nonzero;stroke:none"
             id="path54" /></g><g
           id="g56"
           transform="translate(364.3018,226.4609)"><path
             d="m 0,0 h -20.894 v -25.65 h -11.265 v -18.507 h 11.265 v -64.777 H 0 v 64.777 H 11.426 V -25.65 L 0,-25.65 Z"
             style="fill:#1d1d1b;fill-opacity:1;fill-rule:nonzero;stroke:none"
             id="path58" /></g><g
           id="g60"
           transform="translate(312.5557,238.3135)"><path
             d="m 0,0 c -7.673,0 -13.712,-6.006 -13.712,-13.8 0,-7.63 6.039,-13.637 13.712,-13.637 7.999,0 14.038,6.007 14.038,13.637 C 14.038,-6.006 7.999,0 0,0"
             style="fill:#1d1d1b;fill-opacity:1;fill-rule:nonzero;stroke:none"
             id="path62" /></g></g></g></g></svg>
